<?xml version="1.0" standalone="no"?>
<!DOCTYPE svg PUBLIC "-//W3C//DTD SVG 20010904//EN"
 "http://www.w3.org/TR/2001/REC-SVG-20010904/DTD/svg10.dtd">
<svg version="1.0" xmlns="http://www.w3.org/2000/svg"
 width="512.000000pt" height="512.000000pt" viewBox="0 0 512.000000 512.000000"
 preserveAspectRatio="xMidYMid meet">
<metadata>
Created by potrace 1.14, written by Peter Selinger 2001-2017
</metadata>
<g transform="translate(0.000000,512.000000) scale(0.100000,-0.100000)"
fill="#000000" stroke="none">
<path d="M253 5106 c-102 -32 -176 -97 -222 -196 l-26 -55 0 -2295 0 -2295 26
-55 c32 -69 68 -111 126 -150 95 -64 -63 -60 2429 -58 l2269 3 67 33 c77 38
130 92 167 171 l26 56 0 2295 0 2295 -33 67 c-38 77 -92 130 -171 167 l-56 26
-2280 2 c-1864 1 -2288 -1 -2322 -11z m2157 -1341 l0 -1055 -1055 0 -1055 0 0
1039 c0 932 2 1041 16 1055 14 14 123 16 1055 16 l1039 0 0 -1055z m2394 1039
c14 -14 16 -123 16 -1055 l0 -1039 -1055 0 -1055 0 0 1055 0 1055 1039 0 c932
0 1041 -2 1055 -16z m-2394 -3449 l0 -1055 -1039 0 c-932 0 -1041 2 -1055 16
-14 14 -16 123 -16 1055 l0 1039 1055 0 1055 0 0 -1055z m2410 16 c0 -932 -2
-1041 -16 -1055 -14 -14 -123 -16 -1055 -16 l-1039 0 0 1055 0 1055 1055 0
1055 0 0 -1039z"/>
<path d="M945 4315 c-5 -2 -22 -6 -36 -9 -30 -6 -72 -42 -89 -75 -18 -36 -14
-108 9 -144 11 -18 83 -94 161 -171 77 -76 142 -142 143 -147 1 -5 -66 -77
-149 -161 -83 -84 -157 -164 -164 -177 -18 -35 -14 -107 9 -144 42 -67 136
-90 202 -49 19 11 86 74 150 139 64 65 130 131 146 146 l30 28 144 -146 c164
-166 192 -187 253 -187 116 -2 188 127 126 227 -10 16 -70 80 -132 141 -62 62
-128 127 -146 146 l-33 35 141 139 c172 171 195 201 193 260 -3 85 -65 146
-148 146 -63 0 -88 -19 -254 -187 l-144 -146 -29 28 c-17 15 -80 79 -141 141
-62 63 -128 124 -147 136 -36 23 -77 36 -95 31z"/>
<path d="M3676 4359 c-165 -25 -321 -123 -413 -259 -131 -192 -134 -465 -7
-657 82 -126 231 -232 369 -262 309 -69 614 110 711 416 24 78 27 228 6 309
-41 156 -115 262 -250 359 -27 19 -55 35 -61 35 -6 0 -22 6 -34 14 -60 37
-223 60 -321 45z m154 -304 c166 -36 270 -222 213 -383 -74 -212 -338 -275
-495 -117 -61 61 -83 117 -82 210 0 93 23 150 82 210 77 77 173 104 282 80z"/>
<path d="M1278 1948 c-209 -24 -401 -172 -480 -372 -11 -28 -22 -60 -24 -71
-2 -11 -7 -33 -10 -50 -27 -131 11 -309 91 -430 226 -339 719 -360 971 -40
196 249 159 623 -81 824 -137 113 -289 159 -467 139z m171 -309 c90 -30 166
-110 193 -204 63 -219 -139 -425 -360 -369 -221 57 -301 331 -142 494 84 86
197 115 309 79z"/>
<path d="M3298 1889 c-46 -23 -76 -61 -84 -106 -13 -69 6 -99 171 -263 85 -85
155 -160 155 -165 0 -6 -68 -78 -151 -160 -84 -83 -158 -164 -165 -182 -52
-121 72 -247 190 -194 20 9 105 85 191 170 l154 155 155 -154 c85 -85 169
-161 186 -170 80 -41 189 15 206 108 13 67 -10 102 -178 270 l-157 158 160
159 c169 170 188 199 175 268 -18 94 -128 148 -211 104 -14 -7 -95 -82 -180
-167 l-156 -154 -153 154 c-85 84 -165 159 -179 167 -43 22 -89 23 -129 2z"/>
</g>
</svg>
